# xmcd CD database file
# Copyright (C) 1997 Ti Kan
# 
# Track frame offsets:
#     183
#     16340
#     36808
#     49130
#     62873
#     84100
#     97433
#     118375
#     138900
#     152763
#     173433
# 
# Disc length: 2543 seconds
# 
# Revision: 1
# Processed by: cddbd v1.4b41PL1 Copyright (c) Steve Scherf et al.
# Submitted via: DiscPlay 4.0.3
# 
DISCID=8e09ed0b
DTITLE=Keri Leigh and The Blue Devils - Blue Devil Blues
DYEAR=1900
DGENRE=
TTITLE0=I'm Ready
TTITLE1=Train Don't Roll
TTITLE2=I Be's Troubled
TTITLE3=Roll And Tumble Blues
TTITLE4=Goin' To The Valley
TTITLE5=Tryin' To Get To You
TTITLE6=In The Mood
TTITLE7=Got Love If You Want It
TTITLE8=Terraplane
TTITLE9=Preachin' Blues
TTITLE10=On My Way (Goin' Home)
EXTD=
EXTT0=
EXTT1=
EXTT2=
EXTT3=
EXTT4=
EXTT5=
EXTT6=
EXTT7=
EXTT8=
EXTT9=
EXTT10=
PLAYORDER=
